{"title":"Mad.Max.Fury.Road.2015.WEBRip.480p.x264.AAC-VYTO [P2PDL]","uid":12165071,"size":443497682,"categoryP":"video","categoryS":"movies","magnet":"?xt=urn:btih:25016cc2370afa83d067186a64688e0e9393763c&amp;dn=Mad.Max.Fury.Road.2015.WEBRip.480p.x264.AAC-VYTO+%5BP2PDL%5D&amp;tr=udp%3A%2F%2Ftracker.openbittorrent.com%3A80&amp;tr=udp%3A%2F%2Fopen.demonii.com%3A1337&amp;tr=udp%3A%2F%2Ftracker.coppersurfer.tk%3A6969&amp;tr=udp%3A%2F%2Fexodus.desync.com%3A6969","seeders":15,"leechers":4,"uploader":"ValidusVyto","files":7,"time":1438008875,"description":"____    ____ ____    ____ .___________.  ______   \n     /   /      /   / |           | /  __    \n    /   /      /   /  `---|  |----`|  |  |  | \n        /     _    _/       |  |     |  |  |  | \n       /        |  |         |  |     |  `--'  | \n    __/         |__|         |__|      ______/  \n                                                  \nPresenting Small Encodes with quality for years!\n                                                                                                   \n                                                                                                   \n\nMad.Max.Fury.Road.2015.WEBRip.480p.x264.AAC-VYTO\n\n\nGenre: Action, Adventure, Sci-Fi &lt;a href=&quot;\nhttp://www.imdb.com/title/tt1392190/&quot; rel=&quot;nofollow&quot; target=&quot;_NEW&quot;&gt;\nhttp://www.imdb.com/title/tt1392190/&lt;/a&gt;\n\n\nGeneral\nFormat                         : MPEG-4\nFile size                      : 417 MiB\nDuration                       : 2h 0mn\nOverall bit rate               : 484 Kbps\n\nVideo\nFormat                         : AVC\nBit rate                       : 441 Kbps\nWidth                          : 720 pixels\nHeight                         : 304 pixels\nDisplay aspect ratio           : 2.35:1\nFrame rate mode                : Constant\nFrame rate                     : 23.976 fps\nBit depth                      : 8 bits\nStream size                    : 379 MiB (91%)\nWriting library                : x264 core 146 r2538 121396c\n\nAudio\nFormat                         : AAC\nBit rate mode                  : Variable\nBit rate                       : 39.9 Kbps\nChannel(s)                     : 2 channels\nChannel positions              : Front: L R\nSampling rate                  : 48.0 KHz\nStream size                    : 34.3 MiB (8%)\n\nSubtitle                       : Yes (English)\nSource                         : 720p.WEB-DL\n\n\nScreenshots:\n &lt;a href=&quot;\nhttp://ititli.com/qL&quot; rel=&quot;nofollow&quot; target=&quot;_NEW&quot;&gt;\nhttp://ititli.com/qL&lt;/a&gt; &lt;a href=&quot;\nhttp://ititli.com/qd&quot; rel=&quot;nofollow&quot; target=&quot;_NEW&quot;&gt;\nhttp://ititli.com/qd&lt;/a&gt; &lt;a href=&quot;\nhttp://ititli.com/q0&quot; rel=&quot;nofollow&quot; target=&quot;_NEW&quot;&gt;\nhttp://ititli.com/q0&lt;/a&gt; &lt;a href=&quot;\nhttp://ititli.com/qA&quot; rel=&quot;nofollow&quot; target=&quot;_NEW&quot;&gt;\nhttp://ititli.com/qA&lt;/a&gt; &lt;a href=&quot;\nhttp://ititli.com/ql&quot; rel=&quot;nofollow&quot; target=&quot;_NEW&quot;&gt;\nhttp://ititli.com/ql&lt;/a&gt; &lt;a href=&quot;\nhttp://ititli.com/qm&quot; rel=&quot;nofollow&quot; target=&quot;_NEW&quot;&gt;\nhttp://ititli.com/qm&lt;/a&gt; &lt;a href=&quot;\nhttp://ititli.com/qx&quot; rel=&quot;nofollow&quot; target=&quot;_NEW&quot;&gt;\nhttp://ititli.com/qx&lt;/a&gt; &lt;a href=&quot;\nhttp://ititli.com/q7&quot; rel=&quot;nofollow&quot; target=&quot;_NEW&quot;&gt;\nhttp://ititli.com/q7&lt;/a&gt; &lt;a href=&quot;\nhttp://ititli.com/qC&quot; rel=&quot;nofollow&quot; target=&quot;_NEW&quot;&gt;\nhttp://ititli.com/qC&lt;/a&gt; &lt;a href=&quot;\nhttp://ititli.com/qF&quot; rel=&quot;nofollow&quot; target=&quot;_NEW&quot;&gt;\nhttp://ititli.com/qF&lt;/a&gt; &lt;a href=&quot;\nhttp://ititli.com/qJ&quot; rel=&quot;nofollow&quot; target=&quot;_NEW&quot;&gt;\nhttp://ititli.com/qJ&lt;/a&gt; &lt;a href=&quot;\nhttp://ititli.com/q5&quot; rel=&quot;nofollow&quot; target=&quot;_NEW&quot;&gt;\nhttp://ititli.com/q5&lt;/a&gt;\n\n----------------------------------------------------------------------------------------------------\n\n\nEncoder Notes: Looking For Early Access To Anything You Can Provide DVDScr, R5, DVDR, BluRay, Direct\nAudio, Music Releases and Seedboxes. If You Got anything to offer please contact us.\n\nSupport us by donating BC - 1FgwdzPsd1y25Gea8wP1qni35uGCtmkRCD","torrent":{"xt":"urn:btih:25016cc2370afa83d067186a64688e0e9393763c","amp;dn":"Mad.Max.Fury.Road.2015.WEBRip.480p.x264.AAC-VYTO+%5BP2PDL%5D","amp;tr":["udp%3A%2F%2Ftracker.openbittorrent.com%3A80","udp%3A%2F%2Fopen.demonii.com%3A1337","udp%3A%2F%2Ftracker.coppersurfer.tk%3A6969","udp%3A%2F%2Fexodus.desync.com%3A6969"],"infoHash":"25016cc2370afa83d067186a64688e0e9393763c","infoHashBuffer":{"type":"Buffer","data":[37,1,108,194,55,10,250,131,208,103,24,106,100,104,142,14,147,147,118,60]},"announce":[],"urlList":[]}}